<svg id="Layer_1" data-name="Layer 1" xmlns="http://www.w3.org/2000/svg" xmlns:xlink="http://www.w3.org/1999/xlink" viewBox="0 0 231.48 100.74"><defs><style>.cls-1{fill:url(#linear-gradient);}.cls-2{fill:url(#linear-gradient-2);}.cls-3{fill:url(#linear-gradient-3);}.cls-4{fill:url(#linear-gradient-4);}.cls-5{fill:url(#linear-gradient-5);}.cls-6{fill:url(#linear-gradient-6);}.cls-7{fill:url(#linear-gradient-7);}.cls-8{fill:url(#linear-gradient-8);}.cls-9{fill:url(#linear-gradient-9);}.cls-10{fill:url(#linear-gradient-10);}</style><linearGradient id="linear-gradient" x1="43.8" y1="24.36" x2="44.05" y2="79.37" gradientUnits="userSpaceOnUse"><stop offset="0" stop-color="#e23d8d"/><stop offset="0.99" stop-color="#3c2e72"/></linearGradient><linearGradient id="linear-gradient-2" x1="57.7" y1="83.92" x2="80.13" y2="36.93" xlink:href="#linear-gradient"/><linearGradient id="linear-gradient-3" x1="70.03" y1="28.65" x2="42.03" y2="77.03" xlink:href="#linear-gradient"/><linearGradient id="linear-gradient-4" x1="93.86" y1="58.42" x2="219.65" y2="27.88" xlink:href="#linear-gradient"/><linearGradient id="linear-gradient-5" x1="94.72" y1="61.93" x2="220.5" y2="31.39" xlink:href="#linear-gradient"/><linearGradient id="linear-gradient-6" x1="95.47" y1="65.03" x2="221.25" y2="34.49" xlink:href="#linear-gradient"/><linearGradient id="linear-gradient-7" x1="96.31" y1="68.51" x2="222.1" y2="37.97" xlink:href="#linear-gradient"/><linearGradient id="linear-gradient-8" x1="98.05" y1="75.65" x2="223.83" y2="45.11" xlink:href="#linear-gradient"/><linearGradient id="linear-gradient-9" x1="98.09" y1="75.84" x2="223.88" y2="45.31" xlink:href="#linear-gradient"/><linearGradient id="linear-gradient-10" x1="99.61" y1="82.07" x2="225.39" y2="51.53" xlink:href="#linear-gradient"/></defs><title>Artboard 1 copy</title><path class="cls-1" d="M34,56.48a26.4,26.4,0,0,1,26.4-26.41,25.65,25.65,0,0,1,3.94.3A26.4,26.4,0,1,0,45.86,78.49,26.37,26.37,0,0,1,34,56.48Z"/><path class="cls-2" d="M64.37,30.37A26.4,26.4,0,0,1,49.79,78.78a26.83,26.83,0,0,1-3.93-.29A26.4,26.4,0,1,0,64.37,30.37Z"/><path class="cls-3" d="M64.37,30.37a25.65,25.65,0,0,0-3.94-.3A26.4,26.4,0,0,0,45.86,78.49a26.83,26.83,0,0,0,3.93.29A26.4,26.4,0,0,0,64.37,30.37Zm-14.18,34a2.53,2.53,0,0,1-2.53,2.52h0a2.52,2.52,0,0,1-2.52-2.52V51.09a2.53,2.53,0,0,1,2.52-2.52h0a2.54,2.54,0,0,1,2.53,2.52Zm7.45,0a2.53,2.53,0,0,1-2.53,2.52h0a2.53,2.53,0,0,1-2.52-2.52V47.81a2.54,2.54,0,0,1,2.52-2.52h0a2.54,2.54,0,0,1,2.53,2.52Zm7.45,0a2.53,2.53,0,0,1-2.53,2.52h0A2.53,2.53,0,0,1,60,64.37V44.49A2.54,2.54,0,0,1,62.56,42h0a2.54,2.54,0,0,1,2.53,2.53Z"/><path class="cls-4" d="M104.56,65.12a.73.73,0,0,1-.22-.53V44.24a.8.8,0,0,1,.21-.57.7.7,0,0,1,.54-.21h9.07c2.44,0,4.26.53,5.47,1.61a5.55,5.55,0,0,1,1.81,4.39,4.76,4.76,0,0,1-.79,2.77,4.87,4.87,0,0,1-1.86,1.64,5.46,5.46,0,0,1,3.12,5,6,6,0,0,1-2,4.69,7.88,7.88,0,0,1-5.5,1.78h-9.35A.71.71,0,0,1,104.56,65.12Zm9-12.69a3.52,3.52,0,0,0,2.45-.78,2.71,2.71,0,0,0,.86-2.1,2.53,2.53,0,0,0-.84-2,3.73,3.73,0,0,0-2.47-.72h-4.85v5.63Zm.31,9.57a3.43,3.43,0,0,0,2.53-.9,3.26,3.26,0,0,0,0-4.53,3.51,3.51,0,0,0-2.52-.89h-5.16V62Z"/><path class="cls-5" d="M125.54,46.21a.73.73,0,0,1-.22-.53V43.39a.75.75,0,0,1,.22-.56.69.69,0,0,1,.53-.22H129a.75.75,0,0,1,.78.78v2.29a.71.71,0,0,1-.24.53.77.77,0,0,1-.54.22h-2.88A.73.73,0,0,1,125.54,46.21Zm.12,18.91a.72.72,0,0,1-.21-.53V49.83a.7.7,0,0,1,.21-.54.76.76,0,0,1,.54-.21h2.65a.75.75,0,0,1,.75.75V64.59a.75.75,0,0,1-.75.75H126.2A.73.73,0,0,1,125.66,65.12Z"/><path class="cls-6" d="M136.83,63.86a6,6,0,0,1-1.44-4.37V52.43h-2.47a.69.69,0,0,1-.53-.22.71.71,0,0,1-.22-.53V49.83a.75.75,0,0,1,.75-.75h2.47V43.89a.67.67,0,0,1,.22-.54.72.72,0,0,1,.53-.21h2.59a.74.74,0,0,1,.55.21.69.69,0,0,1,.2.54v5.19h3.91a.75.75,0,0,1,.75.75v1.85a.71.71,0,0,1-.22.53.69.69,0,0,1-.53.22h-3.91v6.72a3.62,3.62,0,0,0,.47,2,1.72,1.72,0,0,0,1.53.69h2.19a.69.69,0,0,1,.75.75v2a.76.76,0,0,1-.2.53.71.71,0,0,1-.55.22h-2.56A5.67,5.67,0,0,1,136.83,63.86Z"/><path class="cls-7" d="M147.46,65.12a.69.69,0,0,1-.22-.53V43.89a.67.67,0,0,1,.22-.54.72.72,0,0,1,.53-.21h2.84a.71.71,0,0,1,.75.75V51a6.22,6.22,0,0,1,5-2.25,5.91,5.91,0,0,1,4.59,1.89,7.34,7.34,0,0,1,1.72,5.14v8.79a.76.76,0,0,1-.2.53.71.71,0,0,1-.55.22h-2.84a.77.77,0,0,1-.57-.22.73.73,0,0,1-.22-.53V56a4.12,4.12,0,0,0-.89-2.83,3.22,3.22,0,0,0-2.55-1,3.35,3.35,0,0,0-2.56,1,3.92,3.92,0,0,0-1,2.81v8.6a.76.76,0,0,1-.2.53.71.71,0,0,1-.55.22H148A.69.69,0,0,1,147.46,65.12Z"/><path class="cls-8" d="M168.39,63.65A8,8,0,0,1,166.21,58l0-.78a8.8,8.8,0,0,1,2-6.16,8.36,8.36,0,0,1,11.41,0,8.63,8.63,0,0,1,2,6v.66a.73.73,0,0,1-.22.53.75.75,0,0,1-.56.22H170.5v.25a4.85,4.85,0,0,0,.95,2.89,2.93,2.93,0,0,0,2.45,1.14,3.54,3.54,0,0,0,2.91-1.43,1.85,1.85,0,0,1,.44-.43,1.34,1.34,0,0,1,.53-.07h2.75a.81.81,0,0,1,.49.15.54.54,0,0,1,.2.44,2.94,2.94,0,0,1-.89,1.77,7.48,7.48,0,0,1-2.55,1.76,9.23,9.23,0,0,1-3.84.75A7.56,7.56,0,0,1,168.39,63.65Zm9-7.88v-.06a4.43,4.43,0,0,0-.92-3,3.39,3.39,0,0,0-5,0,4.54,4.54,0,0,0-.9,3v.06Z"/><path class="cls-9" d="M185.22,65.12a.73.73,0,0,1-.22-.53V43.89a.71.71,0,0,1,.22-.54.74.74,0,0,1,.53-.21h2.63a.71.71,0,0,1,.75.75v20.7a.76.76,0,0,1-.2.53.71.71,0,0,1-.55.22h-2.63A.71.71,0,0,1,185.22,65.12Z"/><path class="cls-10" d="M195.08,65A5.25,5.25,0,0,1,193,63.28a4.24,4.24,0,0,1,.95-5.85,10.37,10.37,0,0,1,4.72-1.78L203,55v-.65a2.77,2.77,0,0,0-.69-2,3,3,0,0,0-2.19-.68,3.22,3.22,0,0,0-1.66.37,5.43,5.43,0,0,0-1,.77l-.52.51a.48.48,0,0,1-.47.38H194a.69.69,0,0,1-.49-.19.62.62,0,0,1-.2-.5,3.31,3.31,0,0,1,.76-1.77,6.07,6.07,0,0,1,2.27-1.71,8.69,8.69,0,0,1,3.78-.74q3.69,0,5.38,1.66a5.78,5.78,0,0,1,1.69,4.34v9.82a.76.76,0,0,1-.2.53.71.71,0,0,1-.55.22h-2.6a.71.71,0,0,1-.53-.22.73.73,0,0,1-.22-.53V63.37A5,5,0,0,1,201.13,65a6.74,6.74,0,0,1-3.12.64A6.65,6.65,0,0,1,195.08,65Zm6.8-3.48a4.49,4.49,0,0,0,1.1-3.26v-.62l-3.13.5c-2.39.37-3.59,1.18-3.59,2.41a1.72,1.72,0,0,0,.83,1.54,3.46,3.46,0,0,0,2,.55A3.72,3.72,0,0,0,201.88,61.53Z"/></svg>